<svg width="26" height="23" viewBox="0 0 26 23" fill="none" xmlns="http://www.w3.org/2000/svg">
<path d="M7.455 2.2401L6.935 3.8001H3.2C1.435 3.8001 0 5.2351 0 7.0001V19.8001C0 21.5651 1.435 23.0001 3.2 23.0001H22.4C24.165 23.0001 25.6 21.5651 25.6 19.8001V7.0001C25.6 5.2351 24.165 3.8001 22.4 3.8001H18.665L18.145 2.2401C17.82 1.2601 16.905 0.600098 15.87 0.600098H9.73C8.695 0.600098 7.78 1.2601 7.455 2.2401ZM12.8 8.6001C14.073 8.6001 15.2939 9.10581 16.1941 10.006C17.0943 10.9062 17.6 12.1271 17.6 13.4001C17.6 14.6731 17.0943 15.894 16.1941 16.7942C15.2939 17.6944 14.073 18.2001 12.8 18.2001C11.527 18.2001 10.3061 17.6944 9.40589 16.7942C8.50571 15.894 8 14.6731 8 13.4001C8 12.1271 8.50571 10.9062 9.40589 10.006C10.3061 9.10581 11.527 8.6001 12.8 8.6001Z" fill="#555B5D"/>
</svg>
